<svg xmlns="http://www.w3.org/2000/svg" width="40" height="40" fill="none"><path fill="#4D5AE5" d="M40 20a19.937 19.937 0 0 1-5.858 14.142A19.937 19.937 0 0 1 20 40a19.937 19.937 0 0 1-14.142-5.858A19.937 19.937 0 0 1 0 20 19.938 19.938 0 0 1 5.858 5.858 19.938 19.938 0 0 1 20 0a19.937 19.937 0 0 1 14.142 5.858A19.937 19.937 0 0 1 40 20Z"/><g fill="#F4F4FD" clip-path="url(#a)"><path d="M31.994 32v-.001H32v-8.802c0-4.306-.927-7.623-5.96-7.623-2.421 0-4.045 1.328-4.708 2.587h-.07v-2.185h-4.773v16.023h4.97v-7.934c0-2.089.396-4.109 2.983-4.109 2.55 0 2.587 2.384 2.587 4.243V32h4.965ZM8.396 15.977h4.976V32H8.396V15.977ZM10.882 8A2.883 2.883 0 0 0 8 10.882c0 1.591 1.291 2.909 2.882 2.909 1.591 0 2.882-1.318 2.882-2.909A2.884 2.884 0 0 0 10.882 8Z"/></g><defs><clipPath id="a"><path fill="#fff" d="M8 8h24v24H8z"/></clipPath></defs></svg>